<?xml version="1.0" ?><svg enable-background="new 0 0 32 32" version="1.1" viewBox="0 0 32 32" xml:space="preserve" xmlns="http://www.w3.org/2000/svg" xmlns:xlink="http://www.w3.org/1999/xlink"><g id="Layer_4_copy"><linearGradient gradientUnits="userSpaceOnUse" id="SVGID_1_" x1="16" x2="16" y1="32" y2="0"><stop offset="0" style="stop-color:#FF2D76"/><stop offset="1" style="stop-color:#FB0000"/></linearGradient><path d="M28.722,12.722C28.722,5.696,23.026,0,16,0S3.278,5.696,3.278,12.722   c0,5.666,3.706,10.462,8.825,12.108L16,32l3.898-7.169C25.016,23.184,28.722,18.388,28.722,12.722z" fill="url(#SVGID_1_)"/></g><g id="Official_copy_2"><g><path d="M23.269,15.009v-2.703c0-0.748-0.614-1.362-1.362-1.362h-0.671c-0.383,0-0.69-0.307-0.69-0.671    c0-2.608-2.129-4.736-4.736-4.736h-2.033c-2.224,0-4.046,1.822-4.046,4.046v5.427c0,2.224,1.822,4.065,4.046,4.065h5.427    C21.428,19.074,23.269,17.233,23.269,15.009L23.269,15.009z M13.777,14.318h4.736c0.384,0,0.69,0.307,0.69,0.69    c0,0.365-0.307,0.671-0.69,0.671h-4.736c-0.364,0-0.671-0.307-0.671-0.671C13.106,14.626,13.413,14.318,13.777,14.318    L13.777,14.318z M17.018,9.582c0,0.383-0.287,0.69-0.671,0.69h-2.57c-0.364,0-0.671-0.307-0.671-0.69    c0-0.364,0.307-0.671,0.671-0.671h2.57C16.73,8.911,17.018,9.218,17.018,9.582L17.018,9.582z" fill="#FFFFFF"/></g></g></svg>